<svg xmlns="http://www.w3.org/2000/svg" xmlns:xlink="http://www.w3.org/1999/xlink" width="500" zoomAndPan="magnify" viewBox="0 0 375 374.999991" height="500" preserveAspectRatio="xMidYMid meet" version="1.0"><defs><g/><clipPath id="1fea188b4a"><path d="M 0 17.160156 L 375 17.160156 L 375 357.839844 L 0 357.839844 Z M 0 17.160156 " clip-rule="nonzero"/></clipPath><clipPath id="4c62b959db"><path d="M 18.472656 187 L 164 187 L 164 280 L 18.472656 280 Z M 18.472656 187 " clip-rule="nonzero"/></clipPath><clipPath id="f739995498"><path d="M 127 132 L 292.222656 132 L 292.222656 200 L 127 200 Z M 127 132 " clip-rule="nonzero"/></clipPath><clipPath id="1a36ce9010"><path d="M 111 87.039062 L 205 87.039062 L 205 233 L 111 233 Z M 111 87.039062 " clip-rule="nonzero"/></clipPath><clipPath id="0feb0435d6"><path d="M 347.277344 250 L 359.277344 250 L 359.277344 262 L 347.277344 262 Z M 347.277344 250 " clip-rule="nonzero"/></clipPath></defs><rect x="-37.5" width="450" fill="#ffffff" y="-37.499999" height="449.999989" fill-opacity="1"/><rect x="-37.5" width="450" fill="#5e17eb" y="-37.499999" height="449.999989" fill-opacity="1"/><g clip-path="url(#1fea188b4a)"><path fill="#5e17eb" d="M 0 17.160156 L 375.28125 17.160156 L 375.28125 357.839844 L 0 357.839844 Z M 0 17.160156 " fill-opacity="1" fill-rule="nonzero"/></g><path fill="#ffffff" d="M 111.441406 177.832031 C 132.03125 129.269531 90.101562 99.234375 90.101562 99.234375 C 102.722656 123.464844 102.203125 146.0625 96.046875 156.085938 C 96.046875 156.085938 94.746094 155.667969 91.777344 151.554688 C 83.859375 140.585938 70.839844 143.539062 65.957031 151.003906 C 60.261719 159.699219 65.421875 173.929688 78.960938 174.496094 C 87.976562 174.871094 87.097656 181.578125 86.90625 185.058594 C 85.292969 214.304688 100.042969 250.453125 130.855469 263.585938 C 130.855469 263.585938 88.289062 232.433594 111.441406 177.832031 " fill-opacity="1" fill-rule="nonzero"/><g clip-path="url(#4c62b959db)"><path fill="#ffffff" d="M 89.128906 228.480469 C 69.351562 179.585938 18.464844 187.996094 18.464844 187.996094 C 44.523438 196.203125 60.136719 212.546875 62.867188 223.992188 C 62.867188 223.992188 61.652344 224.613281 56.644531 223.804688 C 43.292969 221.648438 36.175781 232.945312 37.996094 241.675781 C 40.121094 251.851562 53.832031 258.265625 63.804688 249.089844 C 70.445312 242.984375 74.566406 248.34375 76.894531 250.941406 C 96.429688 272.757812 132.421875 287.894531 163.496094 275.394531 C 163.496094 275.394531 111.367188 283.460938 89.128906 228.480469 " fill-opacity="1" fill-rule="nonzero"/></g><g clip-path="url(#f739995498)"><path fill="#ffffff" d="M 213.683594 180.101562 C 262.246094 200.695312 292.28125 158.761719 292.28125 158.761719 C 268.050781 171.386719 245.453125 170.867188 235.429688 164.707031 C 235.429688 164.707031 235.847656 163.410156 239.960938 160.441406 C 250.929688 152.523438 247.972656 139.503906 240.511719 134.617188 C 231.816406 128.925781 217.585938 134.082031 217.019531 147.621094 C 216.644531 156.636719 209.9375 155.761719 206.457031 155.566406 C 177.210938 153.957031 141.0625 168.703125 127.929688 199.515625 C 127.929688 199.515625 159.082031 156.953125 213.683594 180.101562 " fill-opacity="1" fill-rule="nonzero"/></g><g clip-path="url(#1a36ce9010)"><path fill="#ffffff" d="M 163.035156 157.792969 C 211.929688 138.015625 203.519531 87.125 203.519531 87.125 C 195.3125 113.183594 178.964844 128.796875 167.523438 131.527344 C 167.523438 131.527344 166.898438 130.316406 167.710938 125.308594 C 169.867188 111.953125 158.570312 104.839844 149.839844 106.660156 C 139.664062 108.78125 133.25 122.492188 142.425781 132.464844 C 148.53125 139.105469 143.171875 143.226562 140.574219 145.554688 C 118.753906 165.09375 103.621094 201.085938 116.121094 232.15625 C 116.121094 232.15625 108.054688 180.03125 163.035156 157.792969 " fill-opacity="1" fill-rule="nonzero"/></g><g fill="#ffffff" fill-opacity="1"><g transform="translate(131.769313, 247.666288)"><g><path d="M 30.5625 -8.0625 L 13.53125 -8.0625 L 9.359375 0 L -2.28125 0 L 22.3125 -45.65625 L 35.1875 -45.65625 L 43.640625 0 L 31.859375 0 Z M 29.265625 -16.515625 L 26.59375 -33.421875 L 17.890625 -16.515625 Z M 29.265625 -16.515625 "/></g></g></g><g fill="#ffffff" fill-opacity="1"><g transform="translate(179.688538, 247.666288)"><g><path d="M 27.4375 -45.65625 C 32.164062 -45.65625 35.765625 -44.582031 38.234375 -42.4375 C 40.703125 -40.289062 41.9375 -37.503906 41.9375 -34.078125 C 41.9375 -33.078125 41.851562 -32.144531 41.6875 -31.28125 C 41.164062 -28.25 39.84375 -25.539062 37.71875 -23.15625 C 35.59375 -20.769531 32.753906 -19.078125 29.203125 -18.078125 L 36.546875 0 L 24 0 L 17.5625 -17.234375 L 14.890625 -17.234375 L 11.828125 0 L 0.71875 0 L 8.78125 -45.65625 Z M 30.296875 -30.828125 C 30.390625 -31.515625 30.4375 -31.96875 30.4375 -32.1875 C 30.4375 -33.570312 29.988281 -34.644531 29.09375 -35.40625 C 28.207031 -36.164062 26.898438 -36.546875 25.171875 -36.546875 L 18.28125 -36.546875 L 16.265625 -25.109375 L 23.15625 -25.109375 C 25.1875 -25.109375 26.796875 -25.601562 27.984375 -26.59375 C 29.179688 -27.59375 29.953125 -29.003906 30.296875 -30.828125 Z M 30.296875 -30.828125 "/></g></g></g><g fill="#ffffff" fill-opacity="1"><g transform="translate(222.081119, 247.666288)"><g><path d="M 41.625 -45.65625 L 40.125 -36.875 L 27.96875 -36.875 L 21.453125 0 L 10.34375 0 L 16.84375 -36.875 L 4.75 -36.875 L 6.3125 -45.65625 Z M 41.625 -45.65625 "/></g></g></g><g fill="#ffffff" fill-opacity="1"><g transform="translate(260.507517, 247.666288)"><g><path d="M 19.90625 -45.65625 L 11.828125 0 L 0.71875 0 L 8.78125 -45.65625 Z M 19.90625 -45.65625 "/></g></g></g><g fill="#ffffff" fill-opacity="1"><g transform="translate(279.688199, 247.666288)"><g><path d="M 38.5 -45.65625 L 36.9375 -36.875 L 18.34375 -36.875 L 16.640625 -27.046875 L 30.5625 -27.046875 L 29 -18.59375 L 15.09375 -18.59375 L 11.828125 0 L 0.71875 0 L 8.78125 -45.65625 Z M 38.5 -45.65625 "/></g></g></g><g fill="#ffffff" fill-opacity="1"><g transform="translate(315.253761, 247.666288)"><g><path d="M 47.921875 -45.65625 L 26.796875 -15.09375 L 24.0625 0 L 12.9375 0 L 15.671875 -15.09375 L 5.203125 -45.65625 L 17.8125 -45.65625 L 23.28125 -26.59375 L 35.4375 -45.65625 Z M 47.921875 -45.65625 "/></g></g></g><path fill="#000000" d="M 355.351562 254.78125 C 355.351562 254.574219 355.308594 254.375 355.226562 254.183594 C 355.144531 253.992188 355.027344 253.824219 354.878906 253.675781 C 354.726562 253.53125 354.554688 253.417969 354.355469 253.335938 C 354.160156 253.257812 353.953125 253.21875 353.742188 253.21875 L 351.417969 253.21875 C 351.273438 253.21875 351.203125 253.285156 351.203125 253.425781 L 351.203125 258.851562 C 351.207031 258.984375 351.277344 259.054688 351.417969 259.054688 C 351.558594 259.054688 351.628906 258.984375 351.632812 258.851562 L 351.632812 256.347656 L 353.65625 256.347656 C 353.824219 256.347656 353.984375 256.378906 354.140625 256.441406 C 354.296875 256.503906 354.433594 256.589844 354.550781 256.707031 C 354.667969 256.824219 354.761719 256.957031 354.824219 257.105469 C 354.890625 257.257812 354.921875 257.414062 354.921875 257.578125 L 354.921875 258.851562 C 354.925781 258.984375 354.996094 259.054688 355.136719 259.054688 C 355.277344 259.054688 355.347656 258.984375 355.351562 258.851562 L 355.351562 257.578125 C 355.351562 257.285156 355.273438 257.011719 355.125 256.757812 C 354.976562 256.503906 354.769531 256.304688 354.511719 256.15625 C 354.769531 256.019531 354.972656 255.828125 355.125 255.582031 C 355.273438 255.335938 355.351562 255.066406 355.351562 254.78125 Z M 353.742188 255.929688 L 351.632812 255.929688 L 351.632812 253.632812 L 353.742188 253.632812 C 353.898438 253.636719 354.046875 253.667969 354.1875 253.726562 C 354.332031 253.785156 354.457031 253.867188 354.566406 253.976562 C 354.675781 254.082031 354.761719 254.207031 354.820312 254.347656 C 354.878906 254.484375 354.910156 254.628906 354.910156 254.78125 C 354.910156 254.933594 354.878906 255.078125 354.820312 255.21875 C 354.761719 255.359375 354.675781 255.480469 354.566406 255.589844 C 354.457031 255.695312 354.332031 255.78125 354.1875 255.839844 C 354.046875 255.898438 353.898438 255.929688 353.742188 255.929688 Z M 353.742188 255.929688 " fill-opacity="1" fill-rule="nonzero"/><g clip-path="url(#0feb0435d6)"><path fill="#000000" d="M 353.277344 250.304688 C 352.882812 250.304688 352.492188 250.339844 352.105469 250.417969 C 351.71875 250.492188 351.34375 250.601562 350.980469 250.75 C 350.617188 250.894531 350.273438 251.074219 349.945312 251.289062 C 349.617188 251.5 349.3125 251.742188 349.035156 252.015625 C 348.757812 252.285156 348.507812 252.578125 348.289062 252.898438 C 348.070312 253.214844 347.886719 253.550781 347.734375 253.90625 C 347.585938 254.261719 347.46875 254.625 347.394531 255 C 347.316406 255.375 347.277344 255.753906 347.277344 256.136719 C 347.605469 263.878906 358.949219 263.875 359.277344 256.136719 C 359.277344 255.753906 359.238281 255.375 359.160156 255 C 359.082031 254.625 358.96875 254.257812 358.816406 253.90625 C 358.667969 253.550781 358.480469 253.214844 358.261719 252.898438 C 358.042969 252.578125 357.796875 252.285156 357.515625 252.015625 C 357.238281 251.742188 356.9375 251.5 356.609375 251.289062 C 356.28125 251.074219 355.933594 250.894531 355.570312 250.75 C 355.207031 250.601562 354.832031 250.492188 354.445312 250.417969 C 354.058594 250.339844 353.671875 250.304688 353.277344 250.304688 Z M 353.277344 261.554688 C 352.910156 261.554688 352.546875 261.519531 352.191406 261.449219 C 351.832031 261.382812 351.484375 261.277344 351.144531 261.140625 C 350.808594 261.003906 350.488281 260.839844 350.183594 260.640625 C 349.878906 260.441406 349.597656 260.21875 349.339844 259.96875 C 349.082031 259.714844 348.847656 259.441406 348.644531 259.144531 C 348.441406 258.851562 348.269531 258.539062 348.128906 258.210938 C 347.992188 257.882812 347.886719 257.542969 347.8125 257.195312 C 347.742188 256.84375 347.707031 256.492188 347.703125 256.136719 C 348.011719 248.949219 358.542969 248.953125 358.847656 256.136719 C 358.847656 256.492188 358.8125 256.84375 358.738281 257.195312 C 358.667969 257.542969 358.5625 257.882812 358.421875 258.210938 C 358.28125 258.539062 358.109375 258.851562 357.90625 259.144531 C 357.703125 259.441406 357.472656 259.714844 357.214844 259.96875 C 356.957031 260.21875 356.675781 260.441406 356.371094 260.640625 C 356.066406 260.839844 355.746094 261.003906 355.40625 261.140625 C 355.070312 261.277344 354.722656 261.382812 354.363281 261.449219 C 354.003906 261.519531 353.640625 261.554688 353.277344 261.554688 Z M 353.277344 261.554688 " fill-opacity="1" fill-rule="nonzero"/></g></svg>