<svg xmlns="http://www.w3.org/2000/svg" xmlns:xlink="http://www.w3.org/1999/xlink" width="500" zoomAndPan="magnify" viewBox="0 0 375 374.999991" height="500" preserveAspectRatio="xMidYMid meet" version="1.0"><defs><g/><clipPath id="7923aaaf6f"><path d="M 0 17.160156 L 375 17.160156 L 375 357.839844 L 0 357.839844 Z M 0 17.160156 " clip-rule="nonzero"/></clipPath><clipPath id="c0045b67b2"><path d="M 56.820312 144 L 68.820312 144 L 68.820312 157 L 56.820312 157 Z M 56.820312 144 " clip-rule="nonzero"/></clipPath></defs><rect x="-37.5" width="450" fill="#ffffff" y="-37.499999" height="449.999989" fill-opacity="1"/><rect x="-37.5" width="450" fill="#5e17eb" y="-37.499999" height="449.999989" fill-opacity="1"/><g clip-path="url(#7923aaaf6f)"><path fill="#5e17eb" d="M 0 17.160156 L 375.28125 17.160156 L 375.28125 357.839844 L 0 357.839844 Z M 0 17.160156 " fill-opacity="1" fill-rule="nonzero"/></g><path fill="#000000" d="M 64.894531 149.386719 C 64.894531 149.179688 64.855469 148.980469 64.773438 148.789062 C 64.691406 148.597656 64.574219 148.429688 64.425781 148.28125 C 64.273438 148.136719 64.097656 148.023438 63.902344 147.941406 C 63.707031 147.863281 63.5 147.824219 63.285156 147.824219 L 60.964844 147.824219 C 60.820312 147.824219 60.75 147.894531 60.75 148.03125 L 60.75 153.457031 C 60.75 153.589844 60.824219 153.660156 60.964844 153.660156 C 61.101562 153.660156 61.175781 153.589844 61.175781 153.457031 L 61.175781 150.953125 L 63.203125 150.953125 C 63.371094 150.953125 63.53125 150.984375 63.6875 151.046875 C 63.839844 151.109375 63.976562 151.199219 64.097656 151.3125 C 64.214844 151.429688 64.304688 151.5625 64.371094 151.710938 C 64.433594 151.863281 64.464844 152.019531 64.46875 152.183594 L 64.46875 153.457031 C 64.46875 153.589844 64.542969 153.660156 64.679688 153.660156 C 64.820312 153.660156 64.894531 153.589844 64.894531 153.457031 L 64.894531 152.183594 C 64.894531 151.890625 64.820312 151.617188 64.671875 151.363281 C 64.519531 151.109375 64.316406 150.910156 64.058594 150.761719 C 64.316406 150.625 64.519531 150.433594 64.667969 150.1875 C 64.820312 149.941406 64.894531 149.671875 64.894531 149.386719 Z M 63.285156 150.535156 L 61.175781 150.535156 L 61.175781 148.238281 L 63.285156 148.238281 C 63.441406 148.242188 63.589844 148.273438 63.734375 148.332031 C 63.878906 148.390625 64.003906 148.472656 64.113281 148.582031 C 64.222656 148.6875 64.304688 148.8125 64.367188 148.953125 C 64.425781 149.089844 64.453125 149.238281 64.453125 149.386719 C 64.453125 149.539062 64.425781 149.683594 64.367188 149.824219 C 64.304688 149.964844 64.222656 150.085938 64.113281 150.195312 C 64.003906 150.300781 63.878906 150.386719 63.734375 150.445312 C 63.589844 150.503906 63.441406 150.535156 63.285156 150.535156 Z M 63.285156 150.535156 " fill-opacity="1" fill-rule="nonzero"/><g clip-path="url(#c0045b67b2)"><path fill="#000000" d="M 62.820312 144.910156 C 62.429688 144.910156 62.039062 144.945312 61.652344 145.023438 C 61.265625 145.097656 60.890625 145.207031 60.527344 145.355469 C 60.164062 145.5 59.816406 145.679688 59.492188 145.894531 C 59.164062 146.105469 58.859375 146.347656 58.582031 146.621094 C 58.304688 146.890625 58.054688 147.183594 57.835938 147.503906 C 57.617188 147.820312 57.429688 148.15625 57.28125 148.511719 C 57.128906 148.867188 57.015625 149.230469 56.9375 149.605469 C 56.863281 149.980469 56.824219 150.359375 56.820312 150.742188 C 57.152344 158.484375 68.492188 158.480469 68.820312 150.742188 C 68.820312 150.359375 68.78125 149.980469 68.707031 149.605469 C 68.628906 149.230469 68.515625 148.867188 68.363281 148.511719 C 68.210938 148.15625 68.027344 147.820312 67.808594 147.503906 C 67.589844 147.183594 67.339844 146.890625 67.0625 146.621094 C 66.785156 146.347656 66.480469 146.105469 66.152344 145.894531 C 65.828125 145.679688 65.480469 145.5 65.117188 145.355469 C 64.753906 145.207031 64.378906 145.097656 63.992188 145.023438 C 63.605469 144.945312 63.214844 144.910156 62.820312 144.910156 Z M 62.820312 156.160156 C 62.457031 156.160156 62.09375 156.125 61.734375 156.054688 C 61.378906 155.988281 61.027344 155.882812 60.691406 155.746094 C 60.351562 155.609375 60.03125 155.445312 59.726562 155.246094 C 59.425781 155.046875 59.144531 154.824219 58.882812 154.574219 C 58.625 154.320312 58.394531 154.046875 58.191406 153.753906 C 57.988281 153.457031 57.816406 153.144531 57.675781 152.816406 C 57.535156 152.488281 57.429688 152.148438 57.359375 151.800781 C 57.289062 151.453125 57.25 151.097656 57.25 150.742188 C 57.554688 143.554688 68.089844 143.558594 68.394531 150.742188 C 68.394531 151.097656 68.355469 151.453125 68.285156 151.800781 C 68.214844 152.148438 68.109375 152.488281 67.96875 152.816406 C 67.828125 153.144531 67.65625 153.457031 67.453125 153.753906 C 67.25 154.046875 67.019531 154.320312 66.761719 154.574219 C 66.5 154.824219 66.21875 155.046875 65.914062 155.246094 C 65.613281 155.445312 65.292969 155.609375 64.953125 155.746094 C 64.617188 155.882812 64.265625 155.988281 63.910156 156.054688 C 63.550781 156.125 63.1875 156.160156 62.820312 156.160156 Z M 62.820312 156.160156 " fill-opacity="1" fill-rule="nonzero"/></g><g fill="#ffffff" fill-opacity="1"><g transform="translate(56.822154, 212.756257)"><g><path d="M 35.15625 -9.28125 L 15.5625 -9.28125 L 10.765625 0 L -2.625 0 L 25.65625 -52.515625 L 40.46875 -52.515625 L 50.203125 0 L 36.65625 0 Z M 33.671875 -19 L 30.59375 -38.453125 L 20.578125 -19 Z M 33.671875 -19 "/></g></g></g><g fill="#ffffff" fill-opacity="1"><g transform="translate(111.95296, 212.756257)"><g><path d="M 31.578125 -52.515625 C 37.003906 -52.515625 41.140625 -51.28125 43.984375 -48.8125 C 46.828125 -46.34375 48.25 -43.140625 48.25 -39.203125 C 48.25 -38.054688 48.148438 -36.984375 47.953125 -35.984375 C 47.359375 -32.492188 45.835938 -29.375 43.390625 -26.625 C 40.941406 -23.882812 37.675781 -21.941406 33.59375 -20.796875 L 42.046875 0 L 27.609375 0 L 20.203125 -19.828125 L 17.125 -19.828125 L 13.609375 0 L 0.828125 0 L 10.09375 -52.515625 Z M 34.859375 -35.46875 C 34.960938 -36.257812 35.015625 -36.78125 35.015625 -37.03125 C 35.015625 -38.625 34.5 -39.859375 33.46875 -40.734375 C 32.445312 -41.609375 30.941406 -42.046875 28.953125 -42.046875 L 21.015625 -42.046875 L 18.703125 -28.875 L 26.640625 -28.875 C 28.984375 -28.875 30.835938 -29.445312 32.203125 -30.59375 C 33.578125 -31.738281 34.460938 -33.363281 34.859375 -35.46875 Z M 34.859375 -35.46875 "/></g></g></g><g fill="#ffffff" fill-opacity="1"><g transform="translate(160.725391, 212.756257)"><g><path d="M 47.875 -52.515625 L 46.15625 -42.421875 L 32.171875 -42.421875 L 24.6875 0 L 11.890625 0 L 19.375 -42.421875 L 5.46875 -42.421875 L 7.25 -52.515625 Z M 47.875 -52.515625 "/></g></g></g><g fill="#ffffff" fill-opacity="1"><g transform="translate(204.934751, 212.756257)"><g><path d="M 22.890625 -52.515625 L 13.609375 0 L 0.828125 0 L 10.09375 -52.515625 Z M 22.890625 -52.515625 "/></g></g></g><g fill="#ffffff" fill-opacity="1"><g transform="translate(227.00202, 212.756257)"><g><path d="M 44.28125 -52.515625 L 42.5 -42.421875 L 21.09375 -42.421875 L 19.15625 -31.125 L 35.15625 -31.125 L 33.359375 -21.390625 L 17.359375 -21.390625 L 13.609375 0 L 0.828125 0 L 10.09375 -52.515625 Z M 44.28125 -52.515625 "/></g></g></g><g fill="#ffffff" fill-opacity="1"><g transform="translate(267.920005, 212.756257)"><g><path d="M 55.140625 -52.515625 L 30.828125 -17.359375 L 27.6875 0 L 14.890625 0 L 18.03125 -17.359375 L 5.984375 -52.515625 L 20.5 -52.515625 L 26.78125 -30.59375 L 40.765625 -52.515625 Z M 55.140625 -52.515625 "/></g></g></g></svg>