<svg xmlns="http://www.w3.org/2000/svg" xmlns:xlink="http://www.w3.org/1999/xlink" width="500" zoomAndPan="magnify" viewBox="0 0 375 374.999991" height="500" preserveAspectRatio="xMidYMid meet" version="1.0"><defs><g/><clipPath id="4eb202c920"><path d="M 0 17.160156 L 375 17.160156 L 375 357.839844 L 0 357.839844 Z M 0 17.160156 " clip-rule="nonzero"/></clipPath><clipPath id="d6b9fce96e"><path d="M 155.941406 147 L 167.941406 147 L 167.941406 160 L 155.941406 160 Z M 155.941406 147 " clip-rule="nonzero"/></clipPath></defs><rect x="-37.5" width="450" fill="#ffffff" y="-37.499999" height="449.999989" fill-opacity="1"/><rect x="-37.5" width="450" fill="#5e17eb" y="-37.499999" height="449.999989" fill-opacity="1"/><g clip-path="url(#4eb202c920)"><path fill="#5e17eb" d="M 0 17.160156 L 375.28125 17.160156 L 375.28125 357.839844 L 0 357.839844 Z M 0 17.160156 " fill-opacity="1" fill-rule="nonzero"/></g><g fill="#ffffff" fill-opacity="1"><g transform="translate(159.924606, 212.756286)"><g><path d="M 35.15625 -9.28125 L 15.5625 -9.28125 L 10.765625 0 L -2.625 0 L 25.65625 -52.515625 L 40.46875 -52.515625 L 50.203125 0 L 36.65625 0 Z M 33.671875 -19 L 30.59375 -38.453125 L 20.578125 -19 Z M 33.671875 -19 "/></g></g></g><path fill="#000000" d="M 164.015625 152.039062 C 164.015625 151.828125 163.976562 151.628906 163.894531 151.4375 C 163.8125 151.246094 163.695312 151.078125 163.546875 150.933594 C 163.394531 150.785156 163.21875 150.671875 163.023438 150.59375 C 162.828125 150.511719 162.621094 150.472656 162.40625 150.472656 L 160.085938 150.472656 C 159.941406 150.472656 159.871094 150.542969 159.871094 150.679688 L 159.871094 156.105469 C 159.871094 156.242188 159.945312 156.308594 160.085938 156.308594 C 160.222656 156.308594 160.296875 156.242188 160.296875 156.105469 L 160.296875 153.601562 L 162.324219 153.601562 C 162.492188 153.601562 162.652344 153.632812 162.808594 153.695312 C 162.960938 153.757812 163.097656 153.847656 163.21875 153.960938 C 163.335938 154.078125 163.425781 154.210938 163.492188 154.359375 C 163.554688 154.511719 163.585938 154.667969 163.589844 154.832031 L 163.589844 156.105469 C 163.589844 156.242188 163.664062 156.308594 163.800781 156.308594 C 163.941406 156.308594 164.015625 156.242188 164.015625 156.105469 L 164.015625 154.832031 C 164.015625 154.539062 163.941406 154.265625 163.792969 154.011719 C 163.640625 153.757812 163.4375 153.558594 163.179688 153.410156 C 163.4375 153.273438 163.640625 153.082031 163.789062 152.835938 C 163.941406 152.589844 164.015625 152.324219 164.015625 152.039062 Z M 162.40625 153.183594 L 160.296875 153.183594 L 160.296875 150.890625 L 162.40625 150.890625 C 162.5625 150.890625 162.710938 150.921875 162.855469 150.980469 C 163 151.039062 163.125 151.121094 163.234375 151.230469 C 163.34375 151.335938 163.425781 151.460938 163.488281 151.601562 C 163.546875 151.742188 163.574219 151.886719 163.574219 152.039062 C 163.574219 152.1875 163.546875 152.332031 163.488281 152.472656 C 163.425781 152.613281 163.34375 152.738281 163.234375 152.84375 C 163.125 152.953125 163 153.035156 162.855469 153.09375 C 162.710938 153.152344 162.5625 153.183594 162.40625 153.183594 Z M 162.40625 153.183594 " fill-opacity="1" fill-rule="nonzero"/><g clip-path="url(#d6b9fce96e)"><path fill="#000000" d="M 161.941406 147.558594 C 161.550781 147.558594 161.160156 147.597656 160.773438 147.671875 C 160.386719 147.746094 160.011719 147.859375 159.648438 148.003906 C 159.285156 148.152344 158.9375 148.332031 158.613281 148.542969 C 158.285156 148.757812 157.980469 149 157.703125 149.269531 C 157.425781 149.539062 157.175781 149.835938 156.957031 150.152344 C 156.738281 150.472656 156.550781 150.808594 156.402344 151.160156 C 156.25 151.515625 156.136719 151.878906 156.058594 152.253906 C 155.984375 152.632812 155.945312 153.011719 155.941406 153.394531 C 156.273438 161.132812 167.613281 161.132812 167.941406 153.394531 C 167.941406 153.011719 167.902344 152.632812 167.828125 152.253906 C 167.75 151.878906 167.636719 151.515625 167.484375 151.160156 C 167.332031 150.808594 167.148438 150.472656 166.929688 150.152344 C 166.710938 149.835938 166.460938 149.539062 166.183594 149.269531 C 165.90625 149 165.601562 148.757812 165.273438 148.542969 C 164.949219 148.332031 164.601562 148.152344 164.238281 148.003906 C 163.875 147.859375 163.5 147.746094 163.113281 147.671875 C 162.726562 147.597656 162.335938 147.558594 161.941406 147.558594 Z M 161.941406 158.8125 C 161.578125 158.8125 161.214844 158.777344 160.855469 158.707031 C 160.5 158.636719 160.148438 158.535156 159.8125 158.398438 C 159.472656 158.261719 159.152344 158.09375 158.847656 157.894531 C 158.546875 157.699219 158.265625 157.472656 158.003906 157.222656 C 157.746094 156.972656 157.515625 156.699219 157.3125 156.402344 C 157.109375 156.105469 156.9375 155.792969 156.796875 155.464844 C 156.65625 155.136719 156.550781 154.796875 156.480469 154.449219 C 156.410156 154.101562 156.371094 153.75 156.371094 153.394531 C 156.675781 146.207031 167.210938 146.207031 167.515625 153.394531 C 167.515625 153.75 167.476562 154.101562 167.40625 154.449219 C 167.335938 154.796875 167.230469 155.136719 167.089844 155.464844 C 166.949219 155.792969 166.777344 156.105469 166.574219 156.402344 C 166.371094 156.699219 166.140625 156.972656 165.882812 157.222656 C 165.621094 157.472656 165.339844 157.699219 165.035156 157.894531 C 164.734375 158.09375 164.414062 158.261719 164.074219 158.398438 C 163.738281 158.535156 163.386719 158.636719 163.03125 158.707031 C 162.671875 158.777344 162.308594 158.8125 161.941406 158.8125 Z M 161.941406 158.8125 " fill-opacity="1" fill-rule="nonzero"/></g></svg>