<svg xmlns="http://www.w3.org/2000/svg" xmlns:xlink="http://www.w3.org/1999/xlink" width="500" zoomAndPan="magnify" viewBox="0 0 375 374.999991" height="500" preserveAspectRatio="xMidYMid meet" version="1.0"><defs><g/><clipPath id="960a85f477"><path d="M 0 17.160156 L 375 17.160156 L 375 357.839844 L 0 357.839844 Z M 0 17.160156 " clip-rule="nonzero"/></clipPath><clipPath id="72c2b425a8"><path d="M 65.570312 73 L 97.070312 73 L 97.070312 105 L 65.570312 105 Z M 65.570312 73 " clip-rule="nonzero"/></clipPath></defs><rect x="-37.5" width="450" fill="#ffffff" y="-37.499999" height="449.999989" fill-opacity="1"/><rect x="-37.5" width="450" fill="#5e17eb" y="-37.499999" height="449.999989" fill-opacity="1"/><g clip-path="url(#960a85f477)"><path fill="#5e17eb" d="M 0 17.160156 L 375.28125 17.160156 L 375.28125 357.839844 L 0 357.839844 Z M 0 17.160156 " fill-opacity="1" fill-rule="nonzero"/></g><g fill="#ffffff" fill-opacity="1"><g transform="translate(69.896971, 295.212464)"><g><path d="M 149.953125 -39.5625 L 66.359375 -39.5625 L 45.9375 0 L -11.171875 0 L 109.4375 -223.984375 L 172.609375 -223.984375 L 214.09375 0 L 156.34375 0 Z M 143.578125 -81.046875 L 130.5 -164 L 87.734375 -81.046875 Z M 143.578125 -81.046875 "/></g></g></g><path fill="#000000" d="M 86.761719 85.320312 C 86.761719 85.042969 86.734375 84.769531 86.679688 84.5 C 86.625 84.226562 86.546875 83.960938 86.441406 83.707031 C 86.332031 83.449219 86.203125 83.207031 86.050781 82.976562 C 85.894531 82.746094 85.71875 82.535156 85.523438 82.339844 C 85.328125 82.140625 85.113281 81.96875 84.882812 81.8125 C 84.652344 81.660156 84.410156 81.527344 84.15625 81.421875 C 83.898438 81.316406 83.636719 81.238281 83.363281 81.183594 C 83.089844 81.128906 82.816406 81.101562 82.539062 81.101562 L 76.441406 81.101562 C 76.285156 81.101562 76.152344 81.15625 76.042969 81.265625 C 75.933594 81.375 75.875 81.507812 75.878906 81.664062 L 75.878906 96.296875 C 75.878906 96.449219 75.9375 96.582031 76.046875 96.6875 C 76.15625 96.796875 76.285156 96.847656 76.441406 96.847656 C 76.59375 96.847656 76.722656 96.796875 76.832031 96.6875 C 76.941406 96.582031 77 96.449219 77.003906 96.296875 L 77.003906 89.542969 L 82.316406 89.542969 C 82.757812 89.542969 83.179688 89.628906 83.585938 89.796875 C 83.992188 89.964844 84.351562 90.203125 84.664062 90.515625 C 84.976562 90.828125 85.214844 91.1875 85.382812 91.59375 C 85.550781 92 85.636719 92.421875 85.636719 92.863281 L 85.636719 96.296875 C 85.640625 96.449219 85.695312 96.582031 85.804688 96.6875 C 85.914062 96.796875 86.046875 96.847656 86.199219 96.847656 C 86.351562 96.847656 86.484375 96.796875 86.59375 96.6875 C 86.703125 96.582031 86.757812 96.449219 86.761719 96.296875 L 86.761719 92.863281 C 86.761719 92.074219 86.566406 91.335938 86.171875 90.652344 C 85.777344 89.96875 85.242188 89.425781 84.5625 89.027344 C 85.238281 88.65625 85.773438 88.140625 86.167969 87.476562 C 86.5625 86.8125 86.761719 86.09375 86.761719 85.320312 Z M 82.539062 88.417969 L 77.003906 88.417969 L 77.003906 82.226562 L 82.539062 82.226562 C 82.949219 82.230469 83.339844 82.3125 83.714844 82.46875 C 84.089844 82.628906 84.421875 82.855469 84.707031 83.144531 C 84.996094 83.433594 85.214844 83.765625 85.371094 84.144531 C 85.527344 84.519531 85.601562 84.914062 85.601562 85.320312 C 85.601562 85.730469 85.527344 86.121094 85.371094 86.5 C 85.214844 86.875 84.996094 87.210938 84.707031 87.5 C 84.421875 87.789062 84.089844 88.011719 83.714844 88.171875 C 83.339844 88.332031 82.949219 88.414062 82.539062 88.417969 Z M 82.539062 88.417969 " fill-opacity="1" fill-rule="nonzero"/><g clip-path="url(#72c2b425a8)"><path fill="#000000" d="M 81.320312 73.234375 C 80.285156 73.238281 79.261719 73.339844 78.25 73.542969 C 77.234375 73.742188 76.25 74.042969 75.296875 74.4375 C 74.339844 74.835938 73.433594 75.320312 72.574219 75.894531 C 71.714844 76.46875 70.917969 77.121094 70.1875 77.851562 C 69.457031 78.582031 68.804688 79.378906 68.230469 80.238281 C 67.65625 81.097656 67.167969 82.003906 66.773438 82.957031 C 66.378906 83.914062 66.078125 84.894531 65.875 85.910156 C 65.671875 86.921875 65.570312 87.945312 65.570312 88.980469 C 66.433594 109.867188 96.207031 109.859375 97.070312 88.980469 C 97.070312 87.945312 96.964844 86.921875 96.765625 85.910156 C 96.5625 84.894531 96.261719 83.914062 95.867188 82.957031 C 95.46875 82.003906 94.984375 81.097656 94.410156 80.238281 C 93.835938 79.378906 93.183594 78.582031 92.453125 77.851562 C 91.71875 77.121094 90.925781 76.46875 90.066406 75.894531 C 89.207031 75.320312 88.300781 74.835938 87.34375 74.4375 C 86.390625 74.042969 85.40625 73.742188 84.390625 73.542969 C 83.378906 73.339844 82.351562 73.238281 81.320312 73.234375 Z M 81.320312 103.601562 C 80.359375 103.597656 79.410156 103.503906 78.46875 103.316406 C 77.527344 103.128906 76.613281 102.851562 75.726562 102.484375 C 74.839844 102.113281 73.996094 101.664062 73.199219 101.128906 C 72.398438 100.597656 71.660156 99.992188 70.984375 99.3125 C 70.304688 98.632812 69.699219 97.894531 69.164062 97.097656 C 68.628906 96.300781 68.179688 95.457031 67.8125 94.570312 C 67.445312 93.6875 67.167969 92.773438 66.976562 91.832031 C 66.789062 90.890625 66.695312 89.941406 66.695312 88.980469 C 67.496094 69.585938 95.144531 69.589844 95.945312 88.980469 C 95.945312 89.941406 95.847656 90.890625 95.660156 91.832031 C 95.472656 92.773438 95.195312 93.6875 94.828125 94.574219 C 94.460938 95.457031 94.007812 96.300781 93.476562 97.097656 C 92.941406 97.894531 92.335938 98.632812 91.65625 99.3125 C 90.976562 99.992188 90.238281 100.597656 89.441406 101.128906 C 88.644531 101.664062 87.800781 102.113281 86.914062 102.484375 C 86.027344 102.851562 85.113281 103.128906 84.171875 103.316406 C 83.230469 103.503906 82.28125 103.597656 81.320312 103.601562 Z M 81.320312 103.601562 " fill-opacity="1" fill-rule="nonzero"/></g></svg>